<svg xmlns="http://www.w3.org/2000/svg" xmlns:xlink="http://www.w3.org/1999/xlink" width="500" zoomAndPan="magnify" viewBox="0 0 375 374.999991" height="500" preserveAspectRatio="xMidYMid meet" version="1.0"><path fill="#109b87" d="M 52.335938 71.035156 C 52.273438 71.027344 52.210938 71.023438 52.148438 71.019531 C 49.605469 71.175781 47.917969 73.746094 47.441406 76.128906 C 46.894531 78.277344 47.5 81.1875 49.761719 81.945312 C 50.089844 82.050781 50.441406 82.0625 50.78125 82.007812 C 53.679688 81.363281 55.324219 78.089844 55.25 75.214844 C 55.34375 73.371094 54.246094 71.230469 52.335938 71.035156 Z M 41.753906 69.925781 C 40.199219 69.785156 38.804688 71.273438 38.378906 72.773438 C 37.511719 75.742188 38.40625 79.660156 41.347656 80.972656 C 41.625 81.070312 41.917969 81.109375 42.214844 81.097656 C 44.316406 80.980469 45.46875 78.691406 45.605469 76.75 C 45.835938 74.195312 44.902344 71.101562 42.425781 70.089844 C 42.199219 70 41.976562 69.945312 41.753906 69.925781 Z M 58.082031 80.539062 C 55.378906 80.394531 53.222656 82.949219 52.660156 85.503906 C 52.085938 87.324219 52.761719 89.929688 54.796875 90.316406 C 57.671875 90.613281 59.992188 87.671875 60.390625 84.953125 C 60.78125 83.171875 60.007812 80.863281 58.082031 80.539062 Z M 34.539062 78.429688 C 33.398438 78.289062 32.195312 78.863281 31.683594 80.023438 C 30.316406 83.117188 31.839844 87.414062 35.050781 88.46875 C 36.390625 88.871094 37.722656 87.921875 38.214844 86.648438 C 39.261719 83.929688 38.160156 80.5 35.800781 78.9375 C 35.421875 78.652344 34.984375 78.488281 34.539062 78.429688 Z M 45.890625 85.578125 C 43.65625 85.324219 41.246094 86.238281 39.597656 87.816406 C 37.796875 89.671875 36.238281 91.894531 35.441406 94.410156 C 34.617188 96.1875 35.75 98.480469 37.660156 98.714844 C 39.953125 99.046875 42.121094 97.640625 44.421875 97.785156 C 46.398438 97.703125 48.015625 98.949219 49.683594 99.835938 C 51.089844 100.664062 53.171875 100.652344 54.125 99.085938 C 54.917969 97.46875 54.246094 95.566406 53.691406 93.988281 C 52.492188 91.382812 51.195312 88.644531 48.9375 86.84375 C 48.035156 86.105469 46.984375 85.703125 45.890625 85.578125 Z M 45.890625 85.578125 " fill-opacity="1" fill-rule="nonzero"/><path fill="#109b87" d="M 22.082031 276.21875 C 22.019531 276.226562 21.957031 276.234375 21.894531 276.246094 C 19.445312 276.960938 18.371094 279.839844 18.429688 282.269531 C 18.375 284.484375 19.609375 287.191406 21.980469 287.429688 C 22.324219 287.460938 22.671875 287.390625 22.992188 287.265625 C 25.675781 285.992188 26.554688 282.4375 25.847656 279.648438 C 25.53125 277.832031 23.984375 275.984375 22.082031 276.21875 Z M 11.515625 277.476562 C 9.96875 277.683594 8.933594 279.445312 8.855469 281 C 8.664062 284.089844 10.402344 287.710938 13.5625 288.339844 C 13.855469 288.375 14.148438 288.347656 14.433594 288.269531 C 16.460938 287.691406 17.074219 285.203125 16.78125 283.28125 C 16.441406 280.738281 14.84375 277.929688 12.207031 277.488281 C 11.964844 277.449219 11.734375 277.449219 11.515625 277.476562 Z M 29.785156 284.214844 C 27.117188 284.671875 25.578125 287.640625 25.597656 290.257812 C 25.441406 292.160156 26.671875 294.554688 28.746094 294.480469 C 31.613281 294.132812 33.226562 290.75 33.015625 288.011719 C 33 286.183594 31.734375 284.105469 29.785156 284.214844 Z M 6.359375 287.371094 C 5.214844 287.484375 4.167969 288.3125 3.925781 289.554688 C 3.277344 292.875 5.714844 296.726562 9.078125 297.046875 C 10.476562 297.140625 11.566406 295.917969 11.761719 294.570312 C 12.179688 291.683594 10.347656 288.585938 7.703125 287.585938 C 7.269531 287.390625 6.804688 287.324219 6.359375 287.371094 Z M 19.011719 291.828125 C 16.773438 292.078125 14.628906 293.496094 13.367188 295.402344 C 12.023438 297.613281 10.996094 300.125 10.773438 302.75 C 10.363281 304.671875 11.976562 306.652344 13.890625 306.457031 C 16.203125 306.277344 18.003906 304.425781 20.28125 304.058594 C 22.1875 303.539062 24.042969 304.398438 25.863281 304.894531 C 27.421875 305.390625 29.449219 304.917969 30.027344 303.179688 C 30.441406 301.425781 29.371094 299.722656 28.480469 298.300781 C 26.730469 296.03125 24.863281 293.644531 22.265625 292.390625 C 21.222656 291.867188 20.105469 291.707031 19.011719 291.828125 Z M 19.011719 291.828125 " fill-opacity="1" fill-rule="nonzero"/><path fill="#109b87" d="M 53.660156 344.183594 C 53.601562 344.175781 53.535156 344.167969 53.472656 344.164062 C 50.925781 344.246094 49.164062 346.761719 48.613281 349.128906 C 48.007812 351.261719 48.523438 354.191406 50.761719 355.015625 C 51.085938 355.128906 51.4375 355.148438 51.777344 355.105469 C 54.695312 354.546875 56.4375 351.328125 56.449219 348.449219 C 56.597656 346.609375 55.5625 344.433594 53.660156 344.183594 Z M 43.117188 342.757812 C 41.566406 342.570312 40.128906 344.015625 39.660156 345.503906 C 38.703125 348.445312 39.480469 352.390625 42.378906 353.789062 C 42.652344 353.894531 42.949219 353.941406 43.242188 353.9375 C 45.347656 353.886719 46.566406 351.632812 46.761719 349.695312 C 47.070312 347.148438 46.226562 344.03125 43.785156 342.941406 C 43.5625 342.84375 43.339844 342.785156 43.117188 342.757812 Z M 59.121094 353.855469 C 56.425781 353.628906 54.1875 356.117188 53.550781 358.65625 C 52.925781 360.460938 53.519531 363.085938 55.546875 363.53125 C 58.40625 363.914062 60.816406 361.042969 61.296875 358.335938 C 61.738281 356.566406 61.035156 354.238281 59.121094 353.855469 Z M 35.648438 351.046875 C 34.515625 350.867188 33.292969 351.410156 32.746094 352.550781 C 31.289062 355.601562 32.683594 359.941406 35.859375 361.09375 C 37.191406 361.535156 38.550781 360.625 39.078125 359.371094 C 40.207031 356.679688 39.207031 353.222656 36.898438 351.589844 C 36.523438 351.292969 36.09375 351.113281 35.648438 351.042969 Z M 46.785156 358.53125 C 44.554688 358.210938 42.121094 359.046875 40.425781 360.578125 C 38.570312 362.378906 36.945312 364.554688 36.074219 367.042969 C 35.195312 368.796875 36.261719 371.121094 38.164062 371.410156 C 40.445312 371.8125 42.652344 370.472656 44.949219 370.6875 C 46.929688 370.664062 48.507812 371.957031 50.144531 372.890625 C 51.53125 373.765625 53.613281 373.8125 54.609375 372.273438 C 55.449219 370.683594 54.835938 368.765625 54.328125 367.167969 C 53.207031 364.527344 51.996094 361.753906 49.792969 359.886719 C 48.914062 359.121094 47.871094 358.6875 46.785156 358.53125 Z M 46.785156 358.53125 " fill-opacity="1" fill-rule="nonzero"/><path fill="#109b87" d="M 20.226562 141.125 C 20.167969 141.136719 20.105469 141.148438 20.042969 141.164062 C 17.644531 142.027344 16.746094 144.96875 16.957031 147.386719 C 17.039062 149.601562 18.4375 152.230469 20.820312 152.320312 C 21.164062 152.332031 21.503906 152.242188 21.816406 152.09375 C 24.417969 150.660156 25.078125 147.058594 24.199219 144.316406 C 23.773438 142.523438 22.113281 140.777344 20.226562 141.125 Z M 9.761719 143.03125 C 8.226562 143.332031 7.304688 145.152344 7.320312 146.710938 C 7.320312 149.804688 9.28125 153.3125 12.46875 153.746094 C 12.761719 153.761719 13.058594 153.71875 13.335938 153.625 C 15.324219 152.921875 15.785156 150.402344 15.371094 148.5 C 14.878906 145.984375 13.109375 143.277344 10.453125 143 C 10.210938 142.976562 9.980469 142.988281 9.761719 143.03125 Z M 28.410156 148.632812 C 25.777344 149.253906 24.421875 152.3125 24.597656 154.921875 C 24.5625 156.832031 25.9375 159.144531 28.003906 158.941406 C 30.84375 158.417969 32.246094 154.945312 31.867188 152.222656 C 31.738281 150.402344 30.351562 148.402344 28.410156 148.632812 Z M 5.222656 153.21875 C 4.085938 153.402344 3.09375 154.292969 2.925781 155.546875 C 2.484375 158.902344 5.15625 162.597656 8.53125 162.710938 C 9.933594 162.71875 10.941406 161.433594 11.058594 160.074219 C 11.296875 157.171875 9.277344 154.191406 6.578125 153.351562 C 6.132812 153.183594 5.664062 153.148438 5.222656 153.21875 Z M 18.125 156.894531 C 15.90625 157.277344 13.851562 158.828125 12.710938 160.808594 C 11.503906 163.09375 10.632812 165.664062 10.574219 168.300781 C 10.28125 170.242188 12.011719 172.121094 13.914062 171.808594 C 16.207031 171.484375 17.890625 169.527344 20.140625 169.019531 C 22.015625 168.386719 23.917969 169.128906 25.765625 169.511719 C 27.351562 169.914062 29.34375 169.316406 29.816406 167.546875 C 30.125 165.769531 28.949219 164.136719 27.972656 162.773438 C 26.089844 160.613281 24.078125 158.347656 21.40625 157.253906 C 20.332031 156.796875 19.210938 156.707031 18.125 156.894531 Z M 18.125 156.894531 " fill-opacity="1" fill-rule="nonzero"/><path fill="#109b87" d="M 47.84375 212.671875 C 47.785156 212.664062 47.71875 212.660156 47.65625 212.65625 C 45.113281 212.8125 43.425781 215.378906 42.945312 217.761719 C 42.402344 219.910156 43.003906 222.824219 45.265625 223.582031 C 45.59375 223.6875 45.945312 223.699219 46.285156 223.644531 C 49.1875 223 50.832031 219.730469 50.757812 216.851562 C 50.851562 215.007812 49.753906 212.867188 47.84375 212.671875 Z M 37.261719 211.558594 C 35.707031 211.417969 34.3125 212.902344 33.886719 214.402344 C 33.019531 217.375 33.914062 221.292969 36.851562 222.605469 C 37.128906 222.703125 37.425781 222.742188 37.71875 222.730469 C 39.820312 222.613281 40.972656 220.324219 41.109375 218.382812 C 41.34375 215.832031 40.410156 212.738281 37.9375 211.722656 C 37.710938 211.632812 37.484375 211.578125 37.261719 211.558594 Z M 53.585938 222.175781 C 50.886719 222.03125 48.726562 224.585938 48.164062 227.140625 C 47.589844 228.960938 48.261719 231.570312 50.300781 231.957031 C 53.171875 232.253906 55.496094 229.3125 55.894531 226.59375 C 56.285156 224.8125 55.511719 222.5 53.585938 222.175781 Z M 30.042969 220.0625 C 28.902344 219.917969 27.699219 220.496094 27.1875 221.652344 C 25.820312 224.746094 27.34375 229.042969 30.550781 230.101562 C 31.894531 230.503906 33.226562 229.554688 33.71875 228.28125 C 34.765625 225.5625 33.664062 222.132812 31.308594 220.570312 C 30.925781 220.285156 30.488281 220.117188 30.042969 220.0625 Z M 41.394531 227.214844 C 39.160156 226.960938 36.75 227.871094 35.097656 229.449219 C 33.296875 231.304688 31.742188 233.527344 30.941406 236.039062 C 30.117188 237.820312 31.25 240.109375 33.160156 240.34375 C 35.453125 240.679688 37.621094 239.273438 39.921875 239.417969 C 41.898438 239.339844 43.515625 240.585938 45.179688 241.472656 C 46.589844 242.300781 48.671875 242.289062 49.625 240.722656 C 50.414062 239.105469 49.746094 237.207031 49.191406 235.625 C 47.992188 233.019531 46.699219 230.28125 44.441406 228.480469 C 43.539062 227.742188 42.488281 227.339844 41.394531 227.214844 Z M 41.394531 227.214844 " fill-opacity="1" fill-rule="nonzero"/><path fill="#109b87" d="M 20.355469 1.058594 C 20.296875 1.066406 20.234375 1.074219 20.171875 1.085938 C 17.71875 1.789062 16.625 4.660156 16.675781 7.089844 C 16.609375 9.304688 17.828125 12.019531 20.199219 12.269531 C 20.542969 12.300781 20.886719 12.234375 21.207031 12.109375 C 23.898438 10.855469 24.800781 7.304688 24.105469 4.511719 C 23.800781 2.691406 22.261719 0.835938 20.355469 1.058594 Z M 9.785156 2.261719 C 8.234375 2.460938 7.195312 4.210938 7.105469 5.769531 C 6.898438 8.855469 8.617188 12.488281 11.769531 13.132812 C 12.0625 13.167969 12.359375 13.144531 12.644531 13.070312 C 14.671875 12.5 15.300781 10.019531 15.019531 8.09375 C 14.695312 5.546875 13.109375 2.730469 10.476562 2.277344 C 10.238281 2.234375 10.003906 2.230469 9.785156 2.261719 Z M 28.019531 9.097656 C 25.347656 9.539062 23.792969 12.5 23.796875 15.117188 C 23.632812 17.019531 24.851562 19.417969 26.925781 19.355469 C 29.792969 19.023438 31.425781 15.652344 31.226562 12.910156 C 31.222656 11.085938 29.96875 9 28.019531 9.097656 Z M 4.574219 12.125 C 3.429688 12.230469 2.378906 13.054688 2.128906 14.292969 C 1.464844 17.609375 3.882812 21.476562 7.242188 21.8125 C 8.640625 21.917969 9.734375 20.703125 9.941406 19.355469 C 10.375 16.472656 8.558594 13.363281 5.917969 12.347656 C 5.484375 12.152344 5.023438 12.082031 4.574219 12.125 Z M 17.207031 16.652344 C 14.964844 16.886719 12.8125 18.296875 11.539062 20.195312 C 10.183594 22.398438 9.144531 24.902344 8.90625 27.53125 C 8.484375 29.445312 10.085938 31.4375 12.003906 31.253906 C 14.316406 31.082031 16.125 29.242188 18.40625 28.886719 C 20.316406 28.382812 22.164062 29.25 23.984375 29.753906 C 25.539062 30.261719 27.570312 29.796875 28.160156 28.0625 C 28.582031 26.3125 27.519531 24.601562 26.636719 23.175781 C 24.902344 20.894531 23.046875 18.5 20.453125 17.230469 C 19.414062 16.703125 18.300781 16.539062 17.207031 16.652344 Z M 17.207031 16.652344 " fill-opacity="1" fill-rule="nonzero"/><path fill="#109b87" d="M 115.746094 71.035156 C 115.683594 71.027344 115.621094 71.023438 115.558594 71.019531 C 113.011719 71.175781 111.324219 73.746094 110.847656 76.128906 C 110.304688 78.277344 110.910156 81.1875 113.167969 81.945312 C 113.5 82.050781 113.851562 82.0625 114.191406 82.007812 C 117.089844 81.363281 118.734375 78.089844 118.660156 75.214844 C 118.753906 73.371094 117.652344 71.230469 115.746094 71.035156 Z M 105.164062 69.925781 C 103.609375 69.785156 102.210938 71.273438 101.789062 72.773438 C 100.921875 75.742188 101.816406 79.660156 104.753906 80.972656 C 105.035156 81.070312 105.328125 81.109375 105.621094 81.097656 C 107.726562 80.980469 108.875 78.691406 109.015625 76.75 C 109.246094 74.195312 108.308594 71.101562 105.835938 70.089844 C 105.609375 70 105.386719 69.945312 105.164062 69.925781 Z M 121.488281 80.539062 C 118.789062 80.394531 116.628906 82.949219 116.070312 85.503906 C 115.496094 87.324219 116.167969 89.929688 118.207031 90.316406 C 121.078125 90.613281 123.402344 87.671875 123.800781 84.953125 C 124.191406 83.171875 123.417969 80.863281 121.488281 80.539062 Z M 97.945312 78.429688 C 96.808594 78.289062 95.601562 78.863281 95.089844 80.023438 C 93.722656 83.117188 95.25 87.414062 98.457031 88.46875 C 99.800781 88.871094 101.132812 87.921875 101.625 86.648438 C 102.671875 83.929688 101.566406 80.5 99.210938 78.9375 C 98.832031 78.652344 98.394531 78.488281 97.945312 78.429688 Z M 109.300781 85.578125 C 107.066406 85.324219 104.65625 86.238281 103.003906 87.816406 C 101.207031 89.671875 99.648438 91.894531 98.847656 94.410156 C 98.027344 96.1875 99.160156 98.480469 101.070312 98.714844 C 103.363281 99.046875 105.53125 97.640625 107.832031 97.785156 C 109.808594 97.703125 111.425781 98.949219 113.089844 99.835938 C 114.5 100.664062 116.582031 100.652344 117.535156 99.085938 C 118.324219 97.46875 117.65625 95.566406 117.101562 93.988281 C 115.898438 91.382812 114.605469 88.644531 112.347656 86.84375 C 111.445312 86.105469 110.394531 85.703125 109.300781 85.578125 Z M 109.300781 85.578125 " fill-opacity="1" fill-rule="nonzero"/><path fill="#109b87" d="M 85.488281 276.21875 C 85.425781 276.226562 85.363281 276.234375 85.304688 276.246094 C 82.855469 276.960938 81.777344 279.839844 81.839844 282.269531 C 81.785156 284.484375 83.019531 287.191406 85.390625 287.429688 C 85.734375 287.460938 86.082031 287.390625 86.398438 287.265625 C 89.085938 285.992188 89.964844 282.4375 89.257812 279.648438 C 88.941406 277.832031 87.394531 275.984375 85.488281 276.21875 Z M 74.921875 277.476562 C 73.375 277.683594 72.34375 279.445312 72.261719 281 C 72.074219 284.089844 73.8125 287.710938 76.96875 288.339844 C 77.261719 288.375 77.558594 288.347656 77.84375 288.269531 C 79.867188 287.691406 80.484375 285.203125 80.1875 283.28125 C 79.851562 280.738281 78.253906 277.929688 75.617188 277.488281 C 75.375 277.449219 75.144531 277.449219 74.921875 277.476562 Z M 93.195312 284.214844 C 90.527344 284.671875 88.988281 287.640625 89.003906 290.257812 C 88.851562 292.160156 90.082031 294.554688 92.15625 294.480469 C 95.023438 294.132812 96.636719 290.75 96.421875 288.011719 C 96.410156 286.183594 95.144531 284.105469 93.195312 284.214844 Z M 69.765625 287.371094 C 68.625 287.484375 67.578125 288.3125 67.335938 289.554688 C 66.6875 292.875 69.125 296.726562 72.488281 297.046875 C 73.886719 297.140625 74.972656 295.917969 75.171875 294.570312 C 75.589844 291.683594 73.757812 288.585938 71.113281 287.585938 C 70.675781 287.390625 70.214844 287.324219 69.765625 287.371094 Z M 82.421875 291.828125 C 80.183594 292.078125 78.039062 293.496094 76.777344 295.402344 C 75.433594 297.613281 74.40625 300.125 74.183594 302.75 C 73.773438 304.671875 75.386719 306.652344 77.300781 306.457031 C 79.609375 306.277344 81.414062 304.425781 83.6875 304.058594 C 85.597656 303.539062 87.453125 304.398438 89.269531 304.894531 C 90.828125 305.390625 92.855469 304.917969 93.4375 303.179688 C 93.851562 301.425781 92.777344 299.722656 91.890625 298.300781 C 90.140625 296.03125 88.273438 293.644531 85.671875 292.390625 C 84.628906 291.867188 83.515625 291.707031 82.421875 291.828125 Z M 82.421875 291.828125 " fill-opacity="1" fill-rule="nonzero"/><path fill="#109b87" d="M 117.070312 344.183594 C 117.007812 344.175781 116.945312 344.167969 116.882812 344.164062 C 114.335938 344.246094 112.570312 346.761719 112.023438 349.128906 C 111.417969 351.261719 111.933594 354.191406 114.167969 355.015625 C 114.496094 355.128906 114.847656 355.148438 115.1875 355.105469 C 118.105469 354.546875 119.847656 351.328125 119.859375 348.449219 C 120.007812 346.609375 118.972656 344.433594 117.070312 344.183594 Z M 106.527344 342.757812 C 104.976562 342.570312 103.535156 344.015625 103.070312 345.503906 C 102.109375 348.445312 102.890625 352.390625 105.789062 353.789062 C 106.0625 353.894531 106.355469 353.941406 106.652344 353.9375 C 108.757812 353.886719 109.976562 351.632812 110.171875 349.695312 C 110.480469 347.148438 109.636719 344.03125 107.195312 342.941406 C 106.96875 342.84375 106.746094 342.785156 106.527344 342.757812 Z M 122.527344 353.855469 C 119.832031 353.628906 117.597656 356.117188 116.960938 358.65625 C 116.335938 360.460938 116.929688 363.085938 118.957031 363.53125 C 121.816406 363.914062 124.226562 361.042969 124.703125 358.335938 C 125.148438 356.566406 124.445312 354.238281 122.527344 353.855469 Z M 99.058594 351.046875 C 97.921875 350.867188 96.703125 351.410156 96.15625 352.550781 C 94.695312 355.601562 96.09375 359.941406 99.269531 361.09375 C 100.597656 361.535156 101.957031 360.625 102.488281 359.371094 C 103.613281 356.679688 102.613281 353.222656 100.304688 351.589844 C 99.933594 351.292969 99.5 351.113281 99.058594 351.042969 Z M 110.195312 358.53125 C 107.964844 358.210938 105.53125 359.046875 103.832031 360.578125 C 101.976562 362.378906 100.355469 364.554688 99.480469 367.042969 C 98.605469 368.796875 99.671875 371.121094 101.574219 371.410156 C 103.855469 371.8125 106.0625 370.472656 108.359375 370.6875 C 110.335938 370.664062 111.917969 371.957031 113.554688 372.890625 C 114.9375 373.765625 117.019531 373.8125 118.019531 372.273438 C 118.859375 370.683594 118.246094 368.765625 117.738281 367.167969 C 116.613281 364.527344 115.402344 361.753906 113.203125 359.886719 C 112.320312 359.121094 111.28125 358.6875 110.195312 358.53125 Z M 110.195312 358.53125 " fill-opacity="1" fill-rule="nonzero"/><path fill="#109b87" d="M 83.636719 141.125 C 83.578125 141.136719 83.515625 141.148438 83.453125 141.164062 C 81.054688 142.027344 80.15625 144.96875 80.367188 147.386719 C 80.449219 149.601562 81.847656 152.230469 84.226562 152.320312 C 84.574219 152.332031 84.914062 152.242188 85.222656 152.09375 C 87.828125 150.660156 88.488281 147.058594 87.609375 144.316406 C 87.179688 142.523438 85.523438 140.777344 83.636719 141.125 Z M 73.167969 143.03125 C 71.636719 143.332031 70.714844 145.152344 70.730469 146.710938 C 70.730469 149.804688 72.6875 153.3125 75.878906 153.746094 C 76.171875 153.761719 76.46875 153.71875 76.746094 153.625 C 78.730469 152.921875 79.191406 150.402344 78.78125 148.5 C 78.289062 145.984375 76.519531 143.277344 73.859375 143 C 73.617188 142.976562 73.386719 142.988281 73.167969 143.03125 Z M 91.816406 148.632812 C 89.183594 149.253906 87.832031 152.3125 88.007812 154.921875 C 87.972656 156.832031 89.347656 159.144531 91.414062 158.941406 C 94.253906 158.417969 95.65625 154.945312 95.273438 152.222656 C 95.148438 150.402344 93.757812 148.402344 91.816406 148.632812 Z M 68.628906 153.21875 C 67.496094 153.402344 66.503906 154.292969 66.335938 155.546875 C 65.894531 158.902344 68.5625 162.597656 71.9375 162.710938 C 73.339844 162.71875 74.351562 161.433594 74.46875 160.074219 C 74.707031 157.171875 72.6875 154.191406 69.984375 153.351562 C 69.539062 153.183594 69.074219 153.148438 68.628906 153.21875 Z M 81.535156 156.894531 C 79.316406 157.277344 77.261719 158.828125 76.121094 160.808594 C 74.914062 163.09375 74.042969 165.664062 73.980469 168.300781 C 73.691406 170.242188 75.421875 172.121094 77.320312 171.808594 C 79.617188 171.484375 81.300781 169.527344 83.550781 169.019531 C 85.425781 168.386719 87.328125 169.128906 89.171875 169.511719 C 90.757812 169.914062 92.753906 169.316406 93.226562 167.546875 C 93.53125 165.769531 92.355469 164.136719 91.382812 162.773438 C 89.496094 160.613281 87.488281 158.347656 84.816406 157.253906 C 83.742188 156.796875 82.617188 156.707031 81.535156 156.894531 Z M 81.535156 156.894531 " fill-opacity="1" fill-rule="nonzero"/><path fill="#109b87" d="M 111.253906 212.671875 C 111.191406 212.664062 111.128906 212.660156 111.066406 212.65625 C 108.523438 212.8125 106.832031 215.378906 106.355469 217.761719 C 105.8125 219.910156 106.414062 222.824219 108.675781 223.582031 C 109.003906 223.6875 109.355469 223.699219 109.695312 223.644531 C 112.59375 223 114.242188 219.730469 114.167969 216.851562 C 114.261719 215.007812 113.160156 212.867188 111.253906 212.671875 Z M 100.671875 211.558594 C 99.117188 211.417969 97.71875 212.902344 97.296875 214.402344 C 96.425781 217.375 97.320312 221.292969 100.261719 222.605469 C 100.539062 222.703125 100.832031 222.742188 101.128906 222.730469 C 103.230469 222.613281 104.382812 220.324219 104.519531 218.382812 C 104.753906 215.832031 103.816406 212.738281 101.34375 211.722656 C 101.117188 211.632812 100.894531 211.578125 100.671875 211.558594 Z M 116.996094 222.175781 C 114.292969 222.03125 112.132812 224.585938 111.570312 227.140625 C 111 228.960938 111.671875 231.570312 113.710938 231.957031 C 116.582031 232.253906 118.90625 229.3125 119.304688 226.59375 C 119.695312 224.8125 118.921875 222.5 116.996094 222.175781 Z M 93.453125 220.0625 C 92.3125 219.917969 91.109375 220.496094 90.597656 221.652344 C 89.230469 224.746094 90.753906 229.042969 93.960938 230.101562 C 95.304688 230.503906 96.636719 229.554688 97.128906 228.28125 C 98.175781 225.5625 97.074219 222.132812 94.714844 220.570312 C 94.335938 220.285156 93.898438 220.117188 93.453125 220.0625 Z M 104.804688 227.214844 C 102.566406 226.960938 100.160156 227.871094 98.507812 229.449219 C 96.707031 231.304688 95.148438 233.527344 94.351562 236.039062 C 93.527344 237.820312 94.660156 240.109375 96.570312 240.34375 C 98.863281 240.679688 101.03125 239.273438 103.332031 239.417969 C 105.308594 239.339844 106.925781 240.585938 108.589844 241.472656 C 110 242.300781 112.082031 242.289062 113.03125 240.722656 C 113.824219 239.105469 113.15625 237.207031 112.601562 235.625 C 111.402344 233.019531 110.109375 230.28125 107.851562 228.480469 C 106.949219 227.742188 105.898438 227.339844 104.804688 227.214844 Z M 104.804688 227.214844 " fill-opacity="1" fill-rule="nonzero"/><path fill="#109b87" d="M 83.765625 1.058594 C 83.703125 1.066406 83.640625 1.074219 83.578125 1.085938 C 81.128906 1.789062 80.035156 4.660156 80.085938 7.089844 C 80.019531 9.304688 81.238281 12.019531 83.605469 12.269531 C 83.949219 12.300781 84.296875 12.234375 84.617188 12.109375 C 87.308594 10.855469 88.207031 7.304688 87.515625 4.511719 C 87.207031 2.691406 85.671875 0.835938 83.765625 1.058594 Z M 73.195312 2.261719 C 71.644531 2.460938 70.601562 4.210938 70.515625 5.769531 C 70.308594 8.855469 72.027344 12.488281 75.179688 13.132812 C 75.472656 13.167969 75.769531 13.144531 76.054688 13.070312 C 78.082031 12.5 78.710938 10.019531 78.425781 8.09375 C 78.101562 5.546875 76.519531 2.730469 73.886719 2.277344 C 73.644531 2.234375 73.414062 2.230469 73.195312 2.261719 Z M 91.425781 9.097656 C 88.757812 9.539062 87.203125 12.5 87.207031 15.117188 C 87.039062 17.019531 88.257812 19.417969 90.332031 19.355469 C 93.199219 19.023438 94.835938 15.652344 94.636719 12.910156 C 94.632812 11.085938 93.378906 9 91.425781 9.097656 Z M 67.984375 12.125 C 66.839844 12.230469 65.789062 13.054688 65.539062 14.292969 C 64.871094 17.609375 67.289062 21.476562 70.652344 21.8125 C 72.050781 21.917969 73.144531 20.703125 73.351562 19.355469 C 73.785156 16.472656 71.964844 13.363281 69.328125 12.347656 C 68.894531 12.152344 68.429688 12.082031 67.984375 12.125 Z M 80.613281 16.652344 C 78.375 16.886719 76.222656 18.296875 74.949219 20.195312 C 73.59375 22.398438 72.554688 24.902344 72.316406 27.53125 C 71.894531 29.445312 73.496094 31.4375 75.414062 31.253906 C 77.722656 31.082031 79.535156 29.242188 81.816406 28.886719 C 83.726562 28.382812 85.574219 29.25 87.390625 29.753906 C 88.949219 30.261719 90.976562 29.796875 91.566406 28.0625 C 91.992188 26.3125 90.929688 24.601562 90.046875 23.175781 C 88.308594 20.894531 86.457031 18.5 83.863281 17.230469 C 82.820312 16.703125 81.707031 16.539062 80.613281 16.652344 Z M 80.613281 16.652344 " fill-opacity="1" fill-rule="nonzero"/><path fill="#109b87" d="M 179.15625 71.035156 C 179.09375 71.027344 179.03125 71.023438 178.96875 71.019531 C 176.421875 71.175781 174.734375 73.746094 174.257812 76.128906 C 173.714844 78.277344 174.320312 81.1875 176.578125 81.945312 C 176.90625 82.050781 177.257812 82.0625 177.597656 82.007812 C 180.5 81.363281 182.144531 78.089844 182.070312 75.214844 C 182.164062 73.371094 181.0625 71.230469 179.15625 71.035156 Z M 168.574219 69.925781 C 167.019531 69.785156 165.621094 71.273438 165.199219 72.773438 C 164.328125 75.742188 165.226562 79.660156 168.164062 80.972656 C 168.441406 81.070312 168.738281 81.109375 169.03125 81.097656 C 171.132812 80.980469 172.285156 78.691406 172.421875 76.75 C 172.65625 74.195312 171.71875 71.101562 169.246094 70.089844 C 169.019531 70 168.792969 69.945312 168.574219 69.925781 Z M 184.898438 80.539062 C 182.199219 80.394531 180.039062 82.949219 179.476562 85.503906 C 178.90625 87.324219 179.578125 89.929688 181.617188 90.316406 C 184.488281 90.613281 186.8125 87.671875 187.207031 84.953125 C 187.597656 83.171875 186.828125 80.863281 184.898438 80.539062 Z M 161.355469 78.429688 C 160.214844 78.289062 159.011719 78.863281 158.5 80.023438 C 157.132812 83.117188 158.660156 87.414062 161.867188 88.46875 C 163.210938 88.871094 164.542969 87.921875 165.035156 86.648438 C 166.078125 83.929688 164.976562 80.5 162.621094 78.9375 C 162.238281 78.652344 161.800781 78.488281 161.355469 78.429688 Z M 172.710938 85.578125 C 170.472656 85.324219 168.066406 86.238281 166.414062 87.816406 C 164.613281 89.671875 163.058594 91.894531 162.257812 94.410156 C 161.433594 96.1875 162.570312 98.480469 164.480469 98.714844 C 166.773438 99.046875 168.9375 97.640625 171.242188 97.785156 C 173.21875 97.703125 174.835938 98.949219 176.5 99.835938 C 177.910156 100.664062 179.992188 100.652344 180.941406 99.085938 C 181.734375 97.46875 181.0625 95.566406 180.511719 93.988281 C 179.308594 91.382812 178.015625 88.644531 175.757812 86.84375 C 174.855469 86.105469 173.804688 85.703125 172.710938 85.578125 Z M 172.710938 85.578125 " fill-opacity="1" fill-rule="nonzero"/><path fill="#109b87" d="M 148.898438 276.21875 C 148.835938 276.226562 148.773438 276.234375 148.710938 276.246094 C 146.265625 276.960938 145.1875 279.839844 145.25 282.269531 C 145.195312 284.484375 146.429688 287.191406 148.800781 287.429688 C 149.144531 287.460938 149.488281 287.390625 149.808594 287.265625 C 152.496094 285.992188 153.375 282.4375 152.664062 279.648438 C 152.347656 277.832031 150.800781 275.984375 148.898438 276.21875 Z M 138.332031 277.476562 C 136.785156 277.683594 135.753906 279.445312 135.671875 281 C 135.480469 284.089844 137.222656 287.710938 140.378906 288.339844 C 140.671875 288.375 140.96875 288.347656 141.253906 288.269531 C 143.277344 287.691406 143.894531 285.203125 143.597656 283.28125 C 143.261719 280.738281 141.660156 277.929688 139.023438 277.488281 C 138.785156 277.449219 138.554688 277.449219 138.332031 277.476562 Z M 156.601562 284.214844 C 153.9375 284.671875 152.398438 287.640625 152.414062 290.257812 C 152.261719 292.160156 153.492188 294.554688 155.566406 294.480469 C 158.429688 294.132812 160.046875 290.75 159.832031 288.011719 C 159.820312 286.183594 158.554688 284.105469 156.601562 284.214844 Z M 133.175781 287.371094 C 132.03125 287.484375 130.988281 288.3125 130.742188 289.554688 C 130.09375 292.875 132.535156 296.726562 135.894531 297.046875 C 137.292969 297.140625 138.382812 295.917969 138.582031 294.570312 C 139 291.683594 137.164062 288.585938 134.519531 287.585938 C 134.085938 287.390625 133.625 287.324219 133.175781 287.371094 Z M 145.832031 291.828125 C 143.59375 292.078125 141.445312 293.496094 140.1875 295.402344 C 138.839844 297.613281 137.816406 300.125 137.589844 302.75 C 137.183594 304.671875 138.792969 306.652344 140.710938 306.457031 C 143.019531 306.277344 144.820312 304.425781 147.097656 304.058594 C 149.007812 303.539062 150.859375 304.398438 152.679688 304.894531 C 154.238281 305.390625 156.265625 304.917969 156.847656 303.179688 C 157.261719 301.425781 156.1875 299.722656 155.296875 298.300781 C 153.550781 296.03125 151.683594 293.644531 149.082031 292.390625 C 148.039062 291.867188 146.925781 291.707031 145.832031 291.828125 Z M 145.832031 291.828125 " fill-opacity="1" fill-rule="nonzero"/><path fill="#109b87" d="M 180.480469 344.183594 C 180.417969 344.175781 180.355469 344.167969 180.292969 344.164062 C 177.742188 344.246094 175.980469 346.761719 175.433594 349.128906 C 174.824219 351.261719 175.34375 354.191406 177.578125 355.015625 C 177.902344 355.128906 178.253906 355.148438 178.597656 355.105469 C 181.515625 354.546875 183.257812 351.328125 183.269531 348.449219 C 183.417969 346.609375 182.378906 344.433594 180.480469 344.183594 Z M 169.933594 342.757812 C 168.386719 342.570312 166.945312 344.015625 166.476562 345.503906 C 165.519531 348.445312 166.296875 352.390625 169.195312 353.789062 C 169.472656 353.894531 169.765625 353.941406 170.058594 353.9375 C 172.164062 353.886719 173.382812 351.632812 173.578125 349.695312 C 173.890625 347.148438 173.042969 344.03125 170.601562 342.941406 C 170.378906 342.84375 170.15625 342.785156 169.933594 342.757812 Z M 185.9375 353.855469 C 183.242188 353.628906 181.007812 356.117188 180.371094 358.65625 C 179.742188 360.460938 180.335938 363.085938 182.363281 363.53125 C 185.226562 363.914062 187.636719 361.042969 188.113281 358.335938 C 188.558594 356.566406 187.855469 354.238281 185.9375 353.855469 Z M 162.464844 351.046875 C 161.332031 350.867188 160.109375 351.410156 159.566406 352.550781 C 158.105469 355.601562 159.503906 359.941406 162.679688 361.09375 C 164.007812 361.535156 165.367188 360.625 165.898438 359.371094 C 167.023438 356.679688 166.023438 353.222656 163.714844 351.589844 C 163.34375 351.292969 162.910156 351.113281 162.464844 351.042969 Z M 173.601562 358.53125 C 171.375 358.210938 168.941406 359.046875 167.242188 360.578125 C 165.386719 362.378906 163.765625 364.554688 162.890625 367.042969 C 162.015625 368.796875 163.078125 371.121094 164.980469 371.410156 C 167.265625 371.8125 169.472656 370.472656 171.769531 370.6875 C 173.746094 370.664062 175.324219 371.957031 176.964844 372.890625 C 178.347656 373.765625 180.429688 373.8125 181.425781 372.273438 C 182.265625 370.683594 181.652344 368.765625 181.148438 367.167969 C 180.023438 364.527344 178.8125 361.753906 176.609375 359.886719 C 175.730469 359.121094 174.691406 358.6875 173.601562 358.53125 Z M 173.601562 358.53125 " fill-opacity="1" fill-rule="nonzero"/><path fill="#109b87" d="M 147.046875 141.125 C 146.984375 141.136719 146.921875 141.148438 146.863281 141.164062 C 144.464844 142.027344 143.566406 144.96875 143.777344 147.386719 C 143.859375 149.601562 145.253906 152.230469 147.636719 152.320312 C 147.980469 152.332031 148.324219 152.242188 148.632812 152.09375 C 151.238281 150.660156 151.894531 147.058594 151.015625 144.316406 C 150.589844 142.523438 148.933594 140.777344 147.046875 141.125 Z M 136.578125 143.03125 C 135.046875 143.332031 134.125 145.152344 134.140625 146.710938 C 134.136719 149.804688 136.097656 153.3125 139.289062 153.746094 C 139.582031 153.761719 139.875 153.71875 140.15625 153.625 C 142.140625 152.921875 142.601562 150.402344 142.1875 148.5 C 141.695312 145.984375 139.929688 143.277344 137.269531 143 C 137.027344 142.976562 136.796875 142.988281 136.578125 143.03125 Z M 155.226562 148.632812 C 152.59375 149.253906 151.238281 152.3125 151.417969 154.921875 C 151.378906 156.832031 152.757812 159.144531 154.824219 158.941406 C 157.660156 158.417969 159.066406 154.945312 158.683594 152.222656 C 158.558594 150.402344 157.167969 148.402344 155.226562 148.632812 Z M 132.039062 153.21875 C 130.90625 153.402344 129.910156 154.292969 129.746094 155.546875 C 129.300781 158.902344 131.972656 162.597656 135.347656 162.710938 C 136.75 162.71875 137.761719 161.433594 137.875 160.074219 C 138.117188 157.171875 136.097656 154.191406 133.394531 153.351562 C 132.949219 153.183594 132.484375 153.148438 132.039062 153.21875 Z M 144.945312 156.894531 C 142.726562 157.277344 140.671875 158.828125 139.53125 160.808594 C 138.320312 163.09375 137.453125 165.664062 137.390625 168.300781 C 137.101562 170.242188 138.832031 172.121094 140.730469 171.808594 C 143.023438 171.484375 144.710938 169.527344 146.960938 169.019531 C 148.832031 168.386719 150.734375 169.128906 152.582031 169.511719 C 154.167969 169.914062 156.164062 169.316406 156.636719 167.546875 C 156.941406 165.769531 155.765625 164.136719 154.789062 162.773438 C 152.90625 160.613281 150.894531 158.347656 148.222656 157.253906 C 147.152344 156.796875 146.027344 156.707031 144.945312 156.894531 Z M 144.945312 156.894531 " fill-opacity="1" fill-rule="nonzero"/><path fill="#109b87" d="M 174.664062 212.671875 C 174.601562 212.664062 174.539062 212.660156 174.476562 212.65625 C 171.929688 212.8125 170.242188 215.378906 169.765625 217.761719 C 169.21875 219.910156 169.824219 222.824219 172.082031 223.582031 C 172.410156 223.6875 172.765625 223.699219 173.101562 223.644531 C 176.003906 223 177.648438 219.730469 177.578125 216.851562 C 177.671875 215.007812 176.570312 212.867188 174.664062 212.671875 Z M 164.082031 211.558594 C 162.527344 211.417969 161.128906 212.902344 160.707031 214.402344 C 159.835938 217.375 160.730469 221.292969 163.667969 222.605469 C 163.949219 222.703125 164.242188 222.742188 164.535156 222.730469 C 166.640625 222.613281 167.792969 220.324219 167.929688 218.382812 C 168.164062 215.832031 167.226562 212.738281 164.753906 211.722656 C 164.527344 211.632812 164.304688 211.578125 164.082031 211.558594 Z M 180.40625 222.175781 C 177.703125 222.03125 175.542969 224.585938 174.980469 227.140625 C 174.410156 228.960938 175.078125 231.570312 177.117188 231.957031 C 179.988281 232.253906 182.3125 229.3125 182.710938 226.59375 C 183.105469 224.8125 182.332031 222.5 180.40625 222.175781 Z M 156.863281 220.0625 C 155.722656 219.917969 154.519531 220.496094 154.003906 221.652344 C 152.636719 224.746094 154.164062 229.042969 157.371094 230.101562 C 158.714844 230.503906 160.042969 229.554688 160.539062 228.28125 C 161.582031 225.5625 160.480469 222.132812 158.125 220.570312 C 157.746094 220.285156 157.308594 220.117188 156.863281 220.0625 Z M 168.214844 227.214844 C 165.976562 226.960938 163.570312 227.871094 161.917969 229.449219 C 160.117188 231.304688 158.558594 233.527344 157.757812 236.039062 C 156.933594 237.820312 158.066406 240.109375 159.976562 240.34375 C 162.269531 240.679688 164.4375 239.273438 166.742188 239.417969 C 168.714844 239.339844 170.332031 240.585938 172 241.472656 C 173.40625 242.300781 175.492188 242.289062 176.441406 240.722656 C 177.234375 239.105469 176.566406 237.207031 176.011719 235.625 C 174.808594 233.019531 173.515625 230.28125 171.261719 228.480469 C 170.359375 227.742188 169.308594 227.339844 168.214844 227.214844 Z M 168.214844 227.214844 " fill-opacity="1" fill-rule="nonzero"/><path fill="#109b87" d="M 147.175781 1.058594 C 147.113281 1.066406 147.050781 1.074219 146.988281 1.085938 C 144.539062 1.789062 143.445312 4.660156 143.492188 7.089844 C 143.425781 9.304688 144.644531 12.019531 147.015625 12.269531 C 147.359375 12.300781 147.707031 12.234375 148.023438 12.109375 C 150.71875 10.855469 151.617188 7.304688 150.921875 4.511719 C 150.617188 2.691406 149.078125 0.835938 147.175781 1.058594 Z M 136.601562 2.261719 C 135.054688 2.460938 134.011719 4.210938 133.921875 5.769531 C 133.714844 8.855469 135.4375 12.488281 138.589844 13.132812 C 138.882812 13.167969 139.179688 13.144531 139.464844 13.070312 C 141.492188 12.5 142.121094 10.019531 141.835938 8.09375 C 141.511719 5.546875 139.929688 2.730469 137.296875 2.277344 C 137.054688 2.234375 136.824219 2.230469 136.601562 2.261719 Z M 154.835938 9.097656 C 152.167969 9.539062 150.609375 12.5 150.613281 15.117188 C 150.449219 17.019531 151.667969 19.417969 153.742188 19.355469 C 156.609375 19.023438 158.242188 15.652344 158.042969 12.910156 C 158.039062 11.085938 156.789062 9 154.835938 9.097656 Z M 131.394531 12.125 C 130.25 12.230469 129.199219 13.054688 128.949219 14.292969 C 128.28125 17.609375 130.699219 21.476562 134.058594 21.8125 C 135.457031 21.917969 136.554688 20.703125 136.757812 19.355469 C 137.191406 16.472656 135.375 13.363281 132.738281 12.347656 C 132.304688 12.152344 131.839844 12.082031 131.394531 12.125 Z M 144.023438 16.652344 C 141.785156 16.886719 139.628906 18.296875 138.359375 20.195312 C 137 22.398438 135.960938 24.902344 135.722656 27.53125 C 135.304688 29.445312 136.90625 31.4375 138.820312 31.253906 C 141.132812 31.082031 142.945312 29.242188 145.222656 28.886719 C 147.136719 28.382812 148.984375 29.25 150.800781 29.753906 C 152.355469 30.261719 154.386719 29.796875 154.976562 28.0625 C 155.402344 26.3125 154.335938 24.601562 153.453125 23.175781 C 151.71875 20.894531 149.863281 18.5 147.273438 17.230469 C 146.230469 16.703125 145.117188 16.539062 144.023438 16.652344 Z M 144.023438 16.652344 " fill-opacity="1" fill-rule="nonzero"/><path fill="#109b87" d="M 242.5625 71.035156 C 242.503906 71.027344 242.4375 71.023438 242.375 71.019531 C 239.832031 71.175781 238.144531 73.746094 237.667969 76.128906 C 237.125 78.277344 237.726562 81.1875 239.988281 81.945312 C 240.316406 82.050781 240.667969 82.0625 241.007812 82.007812 C 243.910156 81.363281 245.554688 78.089844 245.476562 75.214844 C 245.574219 73.371094 244.472656 71.230469 242.5625 71.035156 Z M 231.980469 69.925781 C 230.425781 69.785156 229.03125 71.273438 228.609375 72.773438 C 227.738281 75.742188 228.632812 79.660156 231.574219 80.972656 C 231.851562 81.070312 232.148438 81.109375 232.441406 81.097656 C 234.542969 80.980469 235.695312 78.691406 235.832031 76.75 C 236.066406 74.195312 235.128906 71.101562 232.65625 70.089844 C 232.429688 70 232.203125 69.945312 231.980469 69.925781 Z M 248.308594 80.539062 C 245.609375 80.394531 243.449219 82.949219 242.886719 85.503906 C 242.316406 87.324219 242.988281 89.929688 245.027344 90.316406 C 247.898438 90.613281 250.21875 87.671875 250.617188 84.953125 C 251.007812 83.171875 250.234375 80.863281 248.308594 80.539062 Z M 224.765625 78.429688 C 223.625 78.289062 222.421875 78.863281 221.910156 80.023438 C 220.542969 83.117188 222.070312 87.414062 225.277344 88.46875 C 226.621094 88.871094 227.949219 87.921875 228.441406 86.648438 C 229.488281 83.929688 228.386719 80.5 226.027344 78.9375 C 225.648438 78.652344 225.210938 78.488281 224.765625 78.429688 Z M 236.121094 85.578125 C 233.882812 85.324219 231.476562 86.238281 229.824219 87.816406 C 228.023438 89.671875 226.46875 91.894531 225.667969 94.410156 C 224.84375 96.1875 225.976562 98.480469 227.886719 98.714844 C 230.179688 99.046875 232.347656 97.640625 234.648438 97.785156 C 236.625 97.703125 238.242188 98.949219 239.910156 99.835938 C 241.320312 100.664062 243.402344 100.652344 244.351562 99.085938 C 245.144531 97.46875 244.472656 95.566406 243.917969 93.988281 C 242.71875 91.382812 241.425781 88.644531 239.167969 86.84375 C 238.265625 86.105469 237.210938 85.703125 236.121094 85.578125 Z M 236.121094 85.578125 " fill-opacity="1" fill-rule="nonzero"/><path fill="#109b87" d="M 212.308594 276.21875 C 212.246094 276.226562 212.183594 276.234375 212.121094 276.246094 C 209.675781 276.960938 208.597656 279.839844 208.660156 282.269531 C 208.605469 284.484375 209.839844 287.191406 212.210938 287.429688 C 212.554688 287.460938 212.898438 287.390625 213.21875 287.265625 C 215.902344 285.992188 216.785156 282.4375 216.074219 279.648438 C 215.757812 277.832031 214.210938 275.984375 212.308594 276.21875 Z M 201.742188 277.476562 C 200.195312 277.683594 199.160156 279.445312 199.082031 281 C 198.890625 284.089844 200.632812 287.710938 203.789062 288.339844 C 204.082031 288.375 204.378906 288.347656 204.660156 288.269531 C 206.6875 287.691406 207.300781 285.203125 207.007812 283.28125 C 206.667969 280.738281 205.070312 277.929688 202.433594 277.488281 C 202.195312 277.449219 201.960938 277.449219 201.742188 277.476562 Z M 220.011719 284.214844 C 217.347656 284.671875 215.804688 287.640625 215.824219 290.257812 C 215.667969 292.160156 216.902344 294.554688 218.976562 294.480469 C 221.839844 294.132812 223.453125 290.75 223.242188 288.011719 C 223.226562 286.183594 221.964844 284.105469 220.011719 284.214844 Z M 196.585938 287.371094 C 195.441406 287.484375 194.394531 288.3125 194.152344 289.554688 C 193.503906 292.875 195.941406 296.726562 199.304688 297.046875 C 200.703125 297.140625 201.792969 295.917969 201.992188 294.570312 C 202.40625 291.683594 200.574219 288.585938 197.929688 287.585938 C 197.496094 287.390625 197.03125 287.324219 196.585938 287.371094 Z M 209.238281 291.828125 C 207.003906 292.078125 204.855469 293.496094 203.59375 295.402344 C 202.25 297.613281 201.222656 300.125 201 302.75 C 200.589844 304.671875 202.203125 306.652344 204.117188 306.457031 C 206.429688 306.277344 208.230469 304.425781 210.507812 304.058594 C 212.417969 303.539062 214.269531 304.398438 216.089844 304.894531 C 217.648438 305.390625 219.675781 304.917969 220.257812 303.179688 C 220.671875 301.425781 219.597656 299.722656 218.707031 298.300781 C 216.957031 296.03125 215.089844 293.644531 212.492188 292.390625 C 211.449219 291.867188 210.332031 291.707031 209.238281 291.828125 Z M 209.238281 291.828125 " fill-opacity="1" fill-rule="nonzero"/><path fill="#109b87" d="M 243.890625 344.183594 C 243.828125 344.175781 243.765625 344.167969 243.703125 344.164062 C 241.152344 344.246094 239.390625 346.761719 238.839844 349.128906 C 238.234375 351.261719 238.75 354.191406 240.988281 355.015625 C 241.3125 355.128906 241.664062 355.148438 242.003906 355.105469 C 244.925781 354.546875 246.664062 351.328125 246.675781 348.449219 C 246.828125 346.609375 245.789062 344.433594 243.890625 344.183594 Z M 233.34375 342.757812 C 231.792969 342.570312 230.355469 344.015625 229.886719 345.503906 C 228.929688 348.445312 229.707031 352.390625 232.605469 353.789062 C 232.882812 353.894531 233.175781 353.941406 233.46875 353.9375 C 235.574219 353.886719 236.792969 351.632812 236.988281 349.695312 C 237.296875 347.148438 236.453125 344.03125 234.011719 342.941406 C 233.789062 342.84375 233.566406 342.785156 233.34375 342.757812 Z M 249.347656 353.855469 C 246.652344 353.628906 244.417969 356.117188 243.777344 358.65625 C 243.152344 360.460938 243.746094 363.085938 245.773438 363.53125 C 248.632812 363.914062 251.042969 361.042969 251.523438 358.335938 C 251.964844 356.566406 251.261719 354.238281 249.347656 353.855469 Z M 225.875 351.046875 C 224.742188 350.867188 223.519531 351.410156 222.972656 352.550781 C 221.515625 355.601562 222.914062 359.941406 226.085938 361.09375 C 227.417969 361.535156 228.777344 360.625 229.304688 359.371094 C 230.433594 356.679688 229.433594 353.222656 227.125 351.589844 C 226.75 351.292969 226.320312 351.113281 225.875 351.042969 Z M 237.011719 358.53125 C 234.78125 358.210938 232.347656 359.046875 230.652344 360.578125 C 228.796875 362.378906 227.175781 364.554688 226.300781 367.042969 C 225.421875 368.796875 226.488281 371.121094 228.390625 371.410156 C 230.671875 371.8125 232.882812 370.472656 235.175781 370.6875 C 237.15625 370.664062 238.734375 371.957031 240.371094 372.890625 C 241.757812 373.765625 243.839844 373.8125 244.835938 372.273438 C 245.675781 370.683594 245.0625 368.765625 244.558594 367.167969 C 243.433594 364.527344 242.222656 361.753906 240.019531 359.886719 C 239.140625 359.121094 238.101562 358.6875 237.011719 358.53125 Z M 237.011719 358.53125 " fill-opacity="1" fill-rule="nonzero"/><path fill="#109b87" d="M 210.457031 141.125 C 210.394531 141.136719 210.332031 141.148438 210.269531 141.164062 C 207.871094 142.027344 206.972656 144.96875 207.183594 147.386719 C 207.265625 149.601562 208.664062 152.230469 211.046875 152.320312 C 211.390625 152.332031 211.730469 152.242188 212.042969 152.09375 C 214.644531 150.660156 215.304688 147.058594 214.425781 144.316406 C 214 142.523438 212.339844 140.777344 210.457031 141.125 Z M 199.988281 143.03125 C 198.457031 143.332031 197.53125 145.152344 197.546875 146.710938 C 197.546875 149.804688 199.507812 153.3125 202.695312 153.746094 C 202.992188 153.761719 203.285156 153.71875 203.5625 153.625 C 205.550781 152.921875 206.011719 150.402344 205.597656 148.5 C 205.105469 145.984375 203.335938 143.277344 200.679688 143 C 200.4375 142.976562 200.207031 142.988281 199.988281 143.03125 Z M 218.636719 148.632812 C 216.003906 149.253906 214.648438 152.3125 214.828125 154.921875 C 214.789062 156.832031 216.167969 159.144531 218.230469 158.941406 C 221.070312 158.417969 222.472656 154.945312 222.09375 152.222656 C 221.96875 150.402344 220.578125 148.402344 218.636719 148.632812 Z M 195.449219 153.21875 C 194.316406 153.402344 193.320312 154.292969 193.152344 155.546875 C 192.710938 158.902344 195.382812 162.597656 198.757812 162.710938 C 200.160156 162.71875 201.171875 161.433594 201.285156 160.074219 C 201.523438 157.171875 199.503906 154.191406 196.804688 153.351562 C 196.359375 153.183594 195.890625 153.148438 195.449219 153.21875 Z M 208.351562 156.894531 C 206.136719 157.277344 204.078125 158.828125 202.9375 160.808594 C 201.730469 163.09375 200.863281 165.664062 200.800781 168.300781 C 200.507812 170.242188 202.238281 172.121094 204.140625 171.808594 C 206.433594 171.484375 208.117188 169.527344 210.367188 169.019531 C 212.242188 168.386719 214.144531 169.128906 215.992188 169.511719 C 217.578125 169.914062 219.574219 169.316406 220.042969 167.546875 C 220.351562 165.769531 219.175781 164.136719 218.199219 162.773438 C 216.316406 160.613281 214.304688 158.347656 211.632812 157.253906 C 210.558594 156.796875 209.4375 156.707031 208.351562 156.894531 Z M 208.351562 156.894531 " fill-opacity="1" fill-rule="nonzero"/><path fill="#109b87" d="M 238.074219 212.671875 C 238.011719 212.664062 237.949219 212.660156 237.882812 212.65625 C 235.339844 212.8125 233.652344 215.378906 233.171875 217.761719 C 232.628906 219.910156 233.234375 222.824219 235.492188 223.582031 C 235.820312 223.6875 236.171875 223.699219 236.511719 223.644531 C 239.414062 223 241.058594 219.730469 240.984375 216.851562 C 241.082031 215.007812 239.980469 212.867188 238.074219 212.671875 Z M 227.488281 211.558594 C 225.933594 211.417969 224.539062 212.902344 224.117188 214.402344 C 223.246094 217.375 224.140625 221.292969 227.078125 222.605469 C 227.355469 222.703125 227.652344 222.742188 227.945312 222.730469 C 230.046875 222.613281 231.199219 220.324219 231.339844 218.382812 C 231.574219 215.832031 230.636719 212.738281 228.164062 211.722656 C 227.9375 211.632812 227.710938 211.578125 227.488281 211.558594 Z M 243.8125 222.175781 C 241.113281 222.03125 238.953125 224.585938 238.390625 227.140625 C 237.816406 228.960938 238.488281 231.570312 240.527344 231.957031 C 243.398438 232.253906 245.722656 229.3125 246.121094 226.59375 C 246.511719 224.8125 245.742188 222.5 243.8125 222.175781 Z M 220.269531 220.0625 C 219.132812 219.917969 217.925781 220.496094 217.414062 221.652344 C 216.046875 224.746094 217.570312 229.042969 220.777344 230.101562 C 222.121094 230.503906 223.453125 229.554688 223.945312 228.28125 C 224.992188 225.5625 223.890625 222.132812 221.535156 220.570312 C 221.152344 220.285156 220.71875 220.117188 220.269531 220.0625 Z M 231.625 227.214844 C 229.386719 226.960938 226.976562 227.871094 225.328125 229.449219 C 223.527344 231.304688 221.96875 233.527344 221.167969 236.039062 C 220.34375 237.820312 221.476562 240.109375 223.386719 240.34375 C 225.679688 240.679688 227.847656 239.273438 230.148438 239.417969 C 232.125 239.339844 233.742188 240.585938 235.40625 241.472656 C 236.816406 242.300781 238.898438 242.289062 239.851562 240.722656 C 240.644531 239.105469 239.972656 237.207031 239.421875 235.625 C 238.21875 233.019531 236.925781 230.28125 234.667969 228.480469 C 233.765625 227.742188 232.714844 227.339844 231.625 227.214844 Z M 231.625 227.214844 " fill-opacity="1" fill-rule="nonzero"/><path fill="#109b87" d="M 210.585938 1.058594 C 210.523438 1.066406 210.460938 1.074219 210.398438 1.085938 C 207.945312 1.789062 206.855469 4.660156 206.902344 7.089844 C 206.835938 9.304688 208.054688 12.019531 210.425781 12.269531 C 210.769531 12.300781 211.113281 12.234375 211.433594 12.109375 C 214.128906 10.855469 215.027344 7.304688 214.332031 4.511719 C 214.027344 2.691406 212.488281 0.835938 210.585938 1.058594 Z M 200.011719 2.261719 C 198.464844 2.460938 197.421875 4.210938 197.332031 5.769531 C 197.125 8.855469 198.84375 12.488281 202 13.132812 C 202.292969 13.167969 202.589844 13.144531 202.871094 13.070312 C 204.902344 12.5 205.53125 10.019531 205.246094 8.09375 C 204.921875 5.546875 203.339844 2.730469 200.703125 2.277344 C 200.464844 2.234375 200.234375 2.230469 200.011719 2.261719 Z M 218.246094 9.097656 C 215.578125 9.539062 214.019531 12.5 214.023438 15.117188 C 213.859375 17.019531 215.078125 19.417969 217.152344 19.355469 C 220.019531 19.023438 221.652344 15.652344 221.453125 12.910156 C 221.449219 11.085938 220.195312 9 218.246094 9.097656 Z M 194.800781 12.125 C 193.660156 12.230469 192.609375 13.054688 192.359375 14.292969 C 191.691406 17.609375 194.109375 21.476562 197.46875 21.8125 C 198.867188 21.917969 199.960938 20.703125 200.167969 19.355469 C 200.601562 16.472656 198.785156 13.363281 196.144531 12.347656 C 195.710938 12.152344 195.25 12.082031 194.800781 12.125 Z M 207.433594 16.652344 C 205.195312 16.886719 203.039062 18.296875 201.769531 20.195312 C 200.410156 22.398438 199.371094 24.902344 199.132812 27.53125 C 198.714844 29.445312 200.316406 31.4375 202.230469 31.253906 C 204.542969 31.082031 206.355469 29.242188 208.632812 28.886719 C 210.546875 28.382812 212.394531 29.25 214.210938 29.753906 C 215.765625 30.261719 217.796875 29.796875 218.386719 28.0625 C 218.808594 26.3125 217.746094 24.601562 216.863281 23.175781 C 215.128906 20.894531 213.273438 18.5 210.679688 17.230469 C 209.640625 16.703125 208.527344 16.539062 207.433594 16.652344 Z M 207.433594 16.652344 " fill-opacity="1" fill-rule="nonzero"/><path fill="#109b87" d="M 305.972656 71.035156 C 305.910156 71.027344 305.847656 71.023438 305.785156 71.019531 C 303.242188 71.175781 301.554688 73.746094 301.074219 76.128906 C 300.53125 78.277344 301.136719 81.1875 303.398438 81.945312 C 303.726562 82.050781 304.078125 82.0625 304.417969 82.007812 C 307.316406 81.363281 308.960938 78.089844 308.886719 75.214844 C 308.980469 73.371094 307.878906 71.230469 305.972656 71.035156 Z M 295.390625 69.925781 C 293.835938 69.785156 292.441406 71.273438 292.015625 72.773438 C 291.148438 75.742188 292.042969 79.660156 294.984375 80.972656 C 295.261719 81.070312 295.554688 81.109375 295.851562 81.097656 C 297.953125 80.980469 299.101562 78.691406 299.242188 76.75 C 299.472656 74.195312 298.535156 71.101562 296.0625 70.089844 C 295.835938 70 295.613281 69.945312 295.390625 69.925781 Z M 311.71875 80.539062 C 309.015625 80.394531 306.859375 82.949219 306.296875 85.503906 C 305.722656 87.324219 306.394531 89.929688 308.433594 90.316406 C 311.304688 90.613281 313.628906 87.671875 314.027344 84.953125 C 314.417969 83.171875 313.644531 80.863281 311.71875 80.539062 Z M 288.175781 78.429688 C 287.035156 78.289062 285.832031 78.863281 285.320312 80.023438 C 283.953125 83.117188 285.476562 87.414062 288.6875 88.46875 C 290.027344 88.871094 291.359375 87.921875 291.851562 86.648438 C 292.898438 83.929688 291.796875 80.5 289.4375 78.9375 C 289.058594 78.652344 288.621094 78.488281 288.175781 78.429688 Z M 299.527344 85.578125 C 297.292969 85.324219 294.882812 86.238281 293.234375 87.816406 C 291.433594 89.671875 289.875 91.894531 289.078125 94.410156 C 288.253906 96.1875 289.386719 98.480469 291.296875 98.714844 C 293.589844 99.046875 295.757812 97.640625 298.058594 97.785156 C 300.035156 97.703125 301.652344 98.949219 303.316406 99.835938 C 304.726562 100.664062 306.808594 100.652344 307.761719 99.085938 C 308.550781 97.46875 307.882812 95.566406 307.328125 93.988281 C 306.125 91.382812 304.832031 88.644531 302.574219 86.84375 C 301.671875 86.105469 300.621094 85.703125 299.527344 85.578125 Z M 299.527344 85.578125 " fill-opacity="1" fill-rule="nonzero"/><path fill="#109b87" d="M 275.714844 276.21875 C 275.65625 276.226562 275.59375 276.234375 275.53125 276.246094 C 273.082031 276.960938 272.007812 279.839844 272.066406 282.269531 C 272.011719 284.484375 273.246094 287.191406 275.617188 287.429688 C 275.960938 287.460938 276.308594 287.390625 276.625 287.265625 C 279.3125 285.992188 280.191406 282.4375 279.484375 279.648438 C 279.167969 277.832031 277.621094 275.984375 275.714844 276.21875 Z M 265.152344 277.476562 C 263.601562 277.683594 262.570312 279.445312 262.492188 281 C 262.300781 284.089844 264.039062 287.710938 267.195312 288.339844 C 267.488281 288.375 267.785156 288.347656 268.070312 288.269531 C 270.09375 287.691406 270.710938 285.203125 270.414062 283.28125 C 270.078125 280.738281 268.480469 277.929688 265.84375 277.488281 C 265.601562 277.449219 265.371094 277.449219 265.152344 277.476562 Z M 283.421875 284.214844 C 280.753906 284.671875 279.214844 287.640625 279.230469 290.257812 C 279.078125 292.160156 280.308594 294.554688 282.382812 294.480469 C 285.25 294.132812 286.863281 290.75 286.652344 288.011719 C 286.636719 286.183594 285.371094 284.105469 283.421875 284.214844 Z M 259.996094 287.371094 C 258.851562 287.484375 257.804688 288.3125 257.5625 289.554688 C 256.914062 292.875 259.351562 296.726562 262.714844 297.046875 C 264.113281 297.140625 265.199219 295.917969 265.398438 294.570312 C 265.816406 291.683594 263.984375 288.585938 261.339844 287.585938 C 260.90625 287.390625 260.441406 287.324219 259.996094 287.371094 Z M 272.648438 291.828125 C 270.410156 292.078125 268.265625 293.496094 267.003906 295.402344 C 265.660156 297.613281 264.632812 300.125 264.410156 302.75 C 264 304.671875 265.613281 306.652344 267.527344 306.457031 C 269.835938 306.277344 271.640625 304.425781 273.917969 304.058594 C 275.824219 303.539062 277.679688 304.398438 279.5 304.894531 C 281.058594 305.390625 283.085938 304.917969 283.664062 303.179688 C 284.078125 301.425781 283.007812 299.722656 282.117188 298.300781 C 280.367188 296.03125 278.5 293.644531 275.902344 292.390625 C 274.855469 291.867188 273.742188 291.707031 272.648438 291.828125 Z M 272.648438 291.828125 " fill-opacity="1" fill-rule="nonzero"/><path fill="#109b87" d="M 307.296875 344.183594 C 307.238281 344.175781 307.171875 344.167969 307.109375 344.164062 C 304.5625 344.246094 302.800781 346.761719 302.25 349.128906 C 301.644531 351.261719 302.160156 354.191406 304.394531 355.015625 C 304.722656 355.128906 305.074219 355.148438 305.414062 355.105469 C 308.332031 354.546875 310.074219 351.328125 310.085938 348.449219 C 310.234375 346.609375 309.199219 344.433594 307.296875 344.183594 Z M 296.753906 342.757812 C 295.203125 342.570312 293.761719 344.015625 293.296875 345.503906 C 292.339844 348.445312 293.117188 352.390625 296.015625 353.789062 C 296.289062 353.894531 296.585938 353.941406 296.878906 353.9375 C 298.984375 353.886719 300.203125 351.632812 300.398438 349.695312 C 300.707031 347.148438 299.863281 344.03125 297.421875 342.941406 C 297.199219 342.84375 296.972656 342.785156 296.753906 342.757812 Z M 312.753906 353.855469 C 310.058594 353.628906 307.824219 356.117188 307.1875 358.65625 C 306.5625 360.460938 307.15625 363.085938 309.183594 363.53125 C 312.042969 363.914062 314.453125 361.042969 314.933594 358.335938 C 315.375 356.566406 314.671875 354.238281 312.753906 353.855469 Z M 289.285156 351.046875 C 288.148438 350.867188 286.929688 351.410156 286.382812 352.550781 C 284.925781 355.601562 286.320312 359.941406 289.496094 361.09375 C 290.828125 361.535156 292.1875 360.625 292.714844 359.371094 C 293.84375 356.679688 292.84375 353.222656 290.53125 351.589844 C 290.160156 351.292969 289.730469 351.113281 289.285156 351.042969 Z M 300.421875 358.53125 C 298.191406 358.210938 295.757812 359.046875 294.0625 360.578125 C 292.207031 362.378906 290.582031 364.554688 289.710938 367.042969 C 288.832031 368.796875 289.898438 371.121094 291.800781 371.410156 C 294.082031 371.8125 296.289062 370.472656 298.585938 370.6875 C 300.566406 370.664062 302.144531 371.957031 303.78125 372.890625 C 305.167969 373.765625 307.246094 373.8125 308.246094 372.273438 C 309.085938 370.683594 308.472656 368.765625 307.964844 367.167969 C 306.84375 364.527344 305.632812 361.753906 303.429688 359.886719 C 302.546875 359.121094 301.507812 358.6875 300.421875 358.53125 Z M 300.421875 358.53125 " fill-opacity="1" fill-rule="nonzero"/><path fill="#109b87" d="M 273.863281 141.125 C 273.804688 141.136719 273.742188 141.148438 273.679688 141.164062 C 271.28125 142.027344 270.382812 144.96875 270.59375 147.386719 C 270.675781 149.601562 272.074219 152.230469 274.453125 152.320312 C 274.800781 152.332031 275.140625 152.242188 275.453125 152.09375 C 278.054688 150.660156 278.714844 147.058594 277.835938 144.316406 C 277.410156 142.523438 275.75 140.777344 273.863281 141.125 Z M 263.394531 143.03125 C 261.863281 143.332031 260.941406 145.152344 260.957031 146.710938 C 260.957031 149.804688 262.917969 153.3125 266.105469 153.746094 C 266.398438 153.761719 266.695312 153.71875 266.972656 153.625 C 268.957031 152.921875 269.421875 150.402344 269.007812 148.5 C 268.515625 145.984375 266.746094 143.277344 264.089844 143 C 263.84375 142.976562 263.613281 142.988281 263.394531 143.03125 Z M 282.046875 148.632812 C 279.414062 149.253906 278.058594 152.3125 278.234375 154.921875 C 278.199219 156.832031 279.574219 159.144531 281.640625 158.941406 C 284.480469 158.417969 285.882812 154.945312 285.5 152.222656 C 285.375 150.402344 283.984375 148.402344 282.046875 148.632812 Z M 258.859375 153.21875 C 257.722656 153.402344 256.730469 154.292969 256.5625 155.546875 C 256.121094 158.902344 258.789062 162.597656 262.164062 162.710938 C 263.566406 162.71875 264.578125 161.433594 264.695312 160.074219 C 264.933594 157.171875 262.914062 154.191406 260.210938 153.351562 C 259.769531 153.183594 259.300781 153.148438 258.859375 153.21875 Z M 271.761719 156.894531 C 269.542969 157.277344 267.488281 158.828125 266.347656 160.808594 C 265.140625 163.09375 264.269531 165.664062 264.207031 168.300781 C 263.917969 170.242188 265.648438 172.121094 267.546875 171.808594 C 269.84375 171.484375 271.527344 169.527344 273.777344 169.019531 C 275.652344 168.386719 277.554688 169.128906 279.402344 169.511719 C 280.988281 169.914062 282.980469 169.316406 283.453125 167.546875 C 283.761719 165.769531 282.585938 164.136719 281.609375 162.773438 C 279.722656 160.613281 277.714844 158.347656 275.042969 157.253906 C 273.96875 156.796875 272.847656 156.707031 271.761719 156.894531 Z M 271.761719 156.894531 " fill-opacity="1" fill-rule="nonzero"/><path fill="#109b87" d="M 301.480469 212.671875 C 301.421875 212.664062 301.355469 212.660156 301.292969 212.65625 C 298.75 212.8125 297.0625 215.378906 296.582031 217.761719 C 296.039062 219.910156 296.640625 222.824219 298.902344 223.582031 C 299.230469 223.6875 299.582031 223.699219 299.921875 223.644531 C 302.824219 223 304.46875 219.730469 304.394531 216.851562 C 304.488281 215.007812 303.390625 212.867188 301.480469 212.671875 Z M 290.898438 211.558594 C 289.34375 211.417969 287.949219 212.902344 287.523438 214.402344 C 286.65625 217.375 287.546875 221.292969 290.488281 222.605469 C 290.765625 222.703125 291.0625 222.742188 291.355469 222.730469 C 293.457031 222.613281 294.609375 220.324219 294.746094 218.382812 C 294.980469 215.832031 294.046875 212.738281 291.570312 211.722656 C 291.347656 211.632812 291.121094 211.578125 290.898438 211.558594 Z M 307.222656 222.175781 C 304.523438 222.03125 302.363281 224.585938 301.800781 227.140625 C 301.226562 228.960938 301.898438 231.570312 303.9375 231.957031 C 306.808594 232.253906 309.132812 229.3125 309.53125 226.59375 C 309.921875 224.8125 309.148438 222.5 307.222656 222.175781 Z M 283.679688 220.0625 C 282.539062 219.917969 281.335938 220.496094 280.824219 221.652344 C 279.457031 224.746094 280.980469 229.042969 284.1875 230.101562 C 285.53125 230.503906 286.863281 229.554688 287.355469 228.28125 C 288.402344 225.5625 287.300781 222.132812 284.945312 220.570312 C 284.5625 220.285156 284.125 220.117188 283.679688 220.0625 Z M 295.03125 227.214844 C 292.796875 226.960938 290.386719 227.871094 288.734375 229.449219 C 286.933594 231.304688 285.378906 233.527344 284.578125 236.039062 C 283.753906 237.820312 284.886719 240.109375 286.796875 240.34375 C 289.089844 240.679688 291.257812 239.273438 293.558594 239.417969 C 295.535156 239.339844 297.152344 240.585938 298.816406 241.472656 C 300.226562 242.300781 302.308594 242.289062 303.257812 240.722656 C 304.050781 239.105469 303.382812 237.207031 302.828125 235.625 C 301.628906 233.019531 300.335938 230.28125 298.078125 228.480469 C 297.175781 227.742188 296.125 227.339844 295.03125 227.214844 Z M 295.03125 227.214844 " fill-opacity="1" fill-rule="nonzero"/><path fill="#109b87" d="M 273.992188 1.058594 C 273.933594 1.066406 273.867188 1.074219 273.808594 1.085938 C 271.355469 1.789062 270.261719 4.660156 270.3125 7.089844 C 270.246094 9.304688 271.464844 12.019531 273.832031 12.269531 C 274.175781 12.300781 274.523438 12.234375 274.84375 12.109375 C 277.535156 10.855469 278.4375 7.304688 277.742188 4.511719 C 277.4375 2.691406 275.898438 0.835938 273.992188 1.058594 Z M 263.421875 2.261719 C 261.871094 2.460938 260.832031 4.210938 260.742188 5.769531 C 260.535156 8.855469 262.253906 12.488281 265.40625 13.132812 C 265.699219 13.167969 265.996094 13.144531 266.28125 13.070312 C 268.308594 12.5 268.9375 10.019531 268.652344 8.09375 C 268.332031 5.546875 266.746094 2.730469 264.113281 2.277344 C 263.871094 2.234375 263.640625 2.230469 263.421875 2.261719 Z M 281.652344 9.097656 C 278.984375 9.539062 277.429688 12.5 277.433594 15.117188 C 277.269531 17.019531 278.488281 19.417969 280.5625 19.355469 C 283.429688 19.023438 285.0625 15.652344 284.863281 12.910156 C 284.859375 11.085938 283.605469 9 281.652344 9.097656 Z M 258.210938 12.125 C 257.066406 12.230469 256.015625 13.054688 255.765625 14.292969 C 255.101562 17.609375 257.519531 21.476562 260.878906 21.8125 C 262.277344 21.917969 263.371094 20.703125 263.578125 19.355469 C 264.011719 16.472656 262.195312 13.363281 259.554688 12.347656 C 259.121094 12.152344 258.660156 12.082031 258.210938 12.125 Z M 270.839844 16.652344 C 268.601562 16.886719 266.449219 18.296875 265.175781 20.195312 C 263.820312 22.398438 262.78125 24.902344 262.542969 27.53125 C 262.121094 29.445312 263.722656 31.4375 265.640625 31.253906 C 267.949219 31.082031 269.761719 29.242188 272.042969 28.886719 C 273.953125 28.382812 275.800781 29.25 277.621094 29.753906 C 279.175781 30.261719 281.207031 29.796875 281.796875 28.0625 C 282.21875 26.3125 281.15625 24.601562 280.273438 23.175781 C 278.539062 20.894531 276.683594 18.5 274.089844 17.230469 C 273.050781 16.703125 271.933594 16.539062 270.839844 16.652344 Z M 270.839844 16.652344 " fill-opacity="1" fill-rule="nonzero"/><path fill="#109b87" d="M 369.382812 71.035156 C 369.320312 71.027344 369.257812 71.023438 369.195312 71.019531 C 366.648438 71.175781 364.960938 73.746094 364.484375 76.128906 C 363.941406 78.277344 364.546875 81.1875 366.804688 81.945312 C 367.132812 82.050781 367.488281 82.0625 367.824219 82.007812 C 370.726562 81.363281 372.371094 78.089844 372.296875 75.214844 C 372.390625 73.371094 371.289062 71.230469 369.382812 71.035156 Z M 358.800781 69.925781 C 357.246094 69.785156 355.847656 71.273438 355.425781 72.773438 C 354.558594 75.742188 355.453125 79.660156 358.390625 80.972656 C 358.671875 81.070312 358.964844 81.109375 359.257812 81.097656 C 361.363281 80.980469 362.511719 78.691406 362.648438 76.75 C 362.882812 74.195312 361.945312 71.101562 359.472656 70.089844 C 359.246094 70 359.023438 69.945312 358.800781 69.925781 Z M 375.125 80.539062 C 372.425781 80.394531 370.265625 82.949219 369.703125 85.503906 C 369.132812 87.324219 369.804688 89.929688 371.84375 90.316406 C 374.714844 90.613281 377.039062 87.671875 377.4375 84.953125 C 377.828125 83.171875 377.054688 80.863281 375.125 80.539062 Z M 351.582031 78.429688 C 350.445312 78.289062 349.238281 78.863281 348.726562 80.023438 C 347.359375 83.117188 348.886719 87.414062 352.09375 88.46875 C 353.4375 88.871094 354.769531 87.921875 355.261719 86.648438 C 356.308594 83.929688 355.203125 80.5 352.847656 78.9375 C 352.464844 78.652344 352.03125 78.488281 351.582031 78.429688 Z M 362.9375 85.578125 C 360.699219 85.324219 358.292969 86.238281 356.640625 87.816406 C 354.839844 89.671875 353.285156 91.894531 352.484375 94.410156 C 351.664062 96.1875 352.796875 98.480469 354.707031 98.714844 C 357 99.046875 359.167969 97.640625 361.46875 97.785156 C 363.445312 97.703125 365.0625 98.949219 366.726562 99.835938 C 368.136719 100.664062 370.21875 100.652344 371.167969 99.085938 C 371.960938 97.46875 371.292969 95.566406 370.738281 93.988281 C 369.535156 91.382812 368.242188 88.644531 365.984375 86.84375 C 365.082031 86.105469 364.03125 85.703125 362.9375 85.578125 Z M 362.9375 85.578125 " fill-opacity="1" fill-rule="nonzero"/><path fill="#109b87" d="M 339.125 276.21875 C 339.0625 276.226562 339 276.234375 338.9375 276.246094 C 336.492188 276.960938 335.414062 279.839844 335.476562 282.269531 C 335.421875 284.484375 336.65625 287.191406 339.027344 287.429688 C 339.371094 287.460938 339.71875 287.390625 340.035156 287.265625 C 342.722656 285.992188 343.601562 282.4375 342.890625 279.648438 C 342.578125 277.832031 341.027344 275.984375 339.125 276.21875 Z M 328.558594 277.476562 C 327.011719 277.683594 325.980469 279.445312 325.898438 281 C 325.707031 284.089844 327.449219 287.710938 330.605469 288.339844 C 330.898438 288.375 331.195312 288.347656 331.480469 288.269531 C 333.503906 287.691406 334.121094 285.203125 333.824219 283.28125 C 333.488281 280.738281 331.886719 277.929688 329.253906 277.488281 C 329.011719 277.449219 328.78125 277.449219 328.558594 277.476562 Z M 346.832031 284.214844 C 344.164062 284.671875 342.625 287.640625 342.640625 290.257812 C 342.488281 292.160156 343.71875 294.554688 345.792969 294.480469 C 348.660156 294.132812 350.273438 290.75 350.058594 288.011719 C 350.046875 286.183594 348.78125 284.105469 346.832031 284.214844 Z M 323.402344 287.371094 C 322.261719 287.484375 321.214844 288.3125 320.96875 289.554688 C 320.320312 292.875 322.761719 296.726562 326.121094 297.046875 C 327.523438 297.140625 328.609375 295.917969 328.808594 294.570312 C 329.226562 291.683594 327.394531 288.585938 324.746094 287.585938 C 324.3125 287.390625 323.851562 287.324219 323.402344 287.371094 Z M 336.058594 291.828125 C 333.820312 292.078125 331.675781 293.496094 330.414062 295.402344 C 329.066406 297.613281 328.042969 300.125 327.820312 302.75 C 327.410156 304.671875 329.019531 306.652344 330.9375 306.457031 C 333.246094 306.277344 335.046875 304.425781 337.324219 304.058594 C 339.234375 303.539062 341.085938 304.398438 342.90625 304.894531 C 344.464844 305.390625 346.492188 304.917969 347.074219 303.179688 C 347.488281 301.425781 346.414062 299.722656 345.523438 298.300781 C 343.777344 296.03125 341.910156 293.644531 339.308594 292.390625 C 338.265625 291.867188 337.152344 291.707031 336.058594 291.828125 Z M 336.058594 291.828125 " fill-opacity="1" fill-rule="nonzero"/><path fill="#109b87" d="M 370.707031 344.183594 C 370.644531 344.175781 370.582031 344.167969 370.519531 344.164062 C 367.972656 344.246094 366.207031 346.761719 365.660156 349.128906 C 365.050781 351.261719 365.570312 354.191406 367.804688 355.015625 C 368.132812 355.128906 368.484375 355.148438 368.824219 355.105469 C 371.742188 354.546875 373.484375 351.328125 373.496094 348.449219 C 373.644531 346.609375 372.609375 344.433594 370.707031 344.183594 Z M 360.164062 342.757812 C 358.613281 342.570312 357.171875 344.015625 356.703125 345.503906 C 355.746094 348.445312 356.527344 352.390625 359.425781 353.789062 C 359.699219 353.894531 359.992188 353.941406 360.289062 353.9375 C 362.394531 353.886719 363.613281 351.632812 363.808594 349.695312 C 364.117188 347.148438 363.273438 344.03125 360.828125 342.941406 C 360.605469 342.84375 360.382812 342.785156 360.164062 342.757812 Z M 376.164062 353.855469 C 373.46875 353.628906 371.234375 356.117188 370.597656 358.65625 C 369.972656 360.460938 370.566406 363.085938 372.589844 363.53125 C 375.453125 363.914062 377.863281 361.042969 378.339844 358.335938 C 378.785156 356.566406 378.082031 354.238281 376.164062 353.855469 Z M 352.695312 351.046875 C 351.558594 350.867188 350.339844 351.410156 349.792969 352.550781 C 348.332031 355.601562 349.730469 359.941406 352.90625 361.09375 C 354.234375 361.535156 355.59375 360.625 356.125 359.371094 C 357.25 356.679688 356.25 353.222656 353.941406 351.589844 C 353.570312 351.292969 353.136719 351.113281 352.695312 351.042969 Z M 363.828125 358.53125 C 361.601562 358.210938 359.167969 359.046875 357.46875 360.578125 C 355.613281 362.378906 353.992188 364.554688 353.117188 367.042969 C 352.242188 368.796875 353.304688 371.121094 355.210938 371.410156 C 357.492188 371.8125 359.699219 370.472656 361.996094 370.6875 C 363.972656 370.664062 365.554688 371.957031 367.191406 372.890625 C 368.574219 373.765625 370.65625 373.8125 371.652344 372.273438 C 372.492188 370.683594 371.882812 368.765625 371.375 367.167969 C 370.25 364.527344 369.039062 361.753906 366.835938 359.886719 C 365.957031 359.121094 364.917969 358.6875 363.828125 358.53125 Z M 363.828125 358.53125 " fill-opacity="1" fill-rule="nonzero"/><path fill="#109b87" d="M 337.273438 141.125 C 337.210938 141.136719 337.152344 141.148438 337.089844 141.164062 C 334.691406 142.027344 333.792969 144.96875 334.003906 147.386719 C 334.085938 149.601562 335.484375 152.230469 337.863281 152.320312 C 338.207031 152.332031 338.550781 152.242188 338.859375 152.09375 C 341.464844 150.660156 342.125 147.058594 341.242188 144.316406 C 340.816406 142.523438 339.160156 140.777344 337.273438 141.125 Z M 326.804688 143.03125 C 325.273438 143.332031 324.351562 145.152344 324.367188 146.710938 C 324.367188 149.804688 326.324219 153.3125 329.515625 153.746094 C 329.808594 153.761719 330.101562 153.71875 330.382812 153.625 C 332.367188 152.921875 332.828125 150.402344 332.417969 148.5 C 331.921875 145.984375 330.15625 143.277344 327.496094 143 C 327.253906 142.976562 327.023438 142.988281 326.804688 143.03125 Z M 345.453125 148.632812 C 342.820312 149.253906 341.46875 152.3125 341.644531 154.921875 C 341.609375 156.832031 342.984375 159.144531 345.050781 158.941406 C 347.886719 158.417969 349.292969 154.945312 348.910156 152.222656 C 348.785156 150.402344 347.394531 148.402344 345.453125 148.632812 Z M 322.265625 153.21875 C 321.132812 153.402344 320.140625 154.292969 319.972656 155.546875 C 319.527344 158.902344 322.199219 162.597656 325.574219 162.710938 C 326.976562 162.71875 327.988281 161.433594 328.105469 160.074219 C 328.34375 157.171875 326.324219 154.191406 323.621094 153.351562 C 323.175781 153.183594 322.710938 153.148438 322.265625 153.21875 Z M 335.171875 156.894531 C 332.953125 157.277344 330.898438 158.828125 329.757812 160.808594 C 328.550781 163.09375 327.679688 165.664062 327.617188 168.300781 C 327.328125 170.242188 329.058594 172.121094 330.957031 171.808594 C 333.25 171.484375 334.9375 169.527344 337.1875 169.019531 C 339.0625 168.386719 340.960938 169.128906 342.808594 169.511719 C 344.394531 169.914062 346.390625 169.316406 346.863281 167.546875 C 347.167969 165.769531 345.992188 164.136719 345.019531 162.773438 C 343.132812 160.613281 341.121094 158.347656 338.449219 157.253906 C 337.378906 156.796875 336.253906 156.707031 335.171875 156.894531 Z M 335.171875 156.894531 " fill-opacity="1" fill-rule="nonzero"/><path fill="#109b87" d="M 364.890625 212.671875 C 364.828125 212.664062 364.765625 212.660156 364.703125 212.65625 C 362.15625 212.8125 360.46875 215.378906 359.992188 217.761719 C 359.449219 219.910156 360.050781 222.824219 362.308594 223.582031 C 362.640625 223.6875 362.992188 223.699219 363.332031 223.644531 C 366.230469 223 367.878906 219.730469 367.804688 216.851562 C 367.898438 215.007812 366.796875 212.867188 364.890625 212.671875 Z M 354.308594 211.558594 C 352.753906 211.417969 351.355469 212.902344 350.933594 214.402344 C 350.0625 217.375 350.957031 221.292969 353.898438 222.605469 C 354.175781 222.703125 354.46875 222.742188 354.765625 222.730469 C 356.867188 222.613281 358.019531 220.324219 358.15625 218.382812 C 358.390625 215.832031 357.453125 212.738281 354.980469 211.722656 C 354.753906 211.632812 354.53125 211.578125 354.308594 211.558594 Z M 370.632812 222.175781 C 367.929688 222.03125 365.769531 224.585938 365.207031 227.140625 C 364.636719 228.960938 365.308594 231.570312 367.347656 231.957031 C 370.21875 232.253906 372.542969 229.3125 372.941406 226.59375 C 373.332031 224.8125 372.558594 222.5 370.632812 222.175781 Z M 347.089844 220.0625 C 345.949219 219.917969 344.746094 220.496094 344.234375 221.652344 C 342.863281 224.746094 344.390625 229.042969 347.597656 230.101562 C 348.941406 230.503906 350.273438 229.554688 350.765625 228.28125 C 351.8125 225.5625 350.710938 222.132812 348.351562 220.570312 C 347.972656 220.285156 347.535156 220.117188 347.089844 220.0625 Z M 358.441406 227.214844 C 356.203125 226.960938 353.796875 227.871094 352.144531 229.449219 C 350.34375 231.304688 348.785156 233.527344 347.988281 236.039062 C 347.164062 237.820312 348.292969 240.109375 350.207031 240.34375 C 352.5 240.679688 354.664062 239.273438 356.96875 239.417969 C 358.945312 239.339844 360.5625 240.585938 362.226562 241.472656 C 363.636719 242.300781 365.71875 242.289062 366.667969 240.722656 C 367.460938 239.105469 366.792969 237.207031 366.238281 235.625 C 365.039062 233.019531 363.746094 230.28125 361.488281 228.480469 C 360.585938 227.742188 359.535156 227.339844 358.441406 227.214844 Z M 358.441406 227.214844 " fill-opacity="1" fill-rule="nonzero"/><path fill="#109b87" d="M 337.402344 1.058594 C 337.339844 1.066406 337.277344 1.074219 337.214844 1.085938 C 334.765625 1.789062 333.671875 4.660156 333.71875 7.089844 C 333.652344 9.304688 334.875 12.019531 337.242188 12.269531 C 337.585938 12.300781 337.933594 12.234375 338.253906 12.109375 C 340.945312 10.855469 341.84375 7.304688 341.152344 4.511719 C 340.84375 2.691406 339.308594 0.835938 337.402344 1.058594 Z M 326.832031 2.261719 C 325.28125 2.460938 324.238281 4.210938 324.152344 5.769531 C 323.941406 8.855469 325.664062 12.488281 328.816406 13.132812 C 329.109375 13.167969 329.40625 13.144531 329.691406 13.070312 C 331.71875 12.5 332.347656 10.019531 332.0625 8.09375 C 331.738281 5.546875 330.15625 2.730469 327.523438 2.277344 C 327.28125 2.234375 327.050781 2.230469 326.832031 2.261719 Z M 345.0625 9.097656 C 342.394531 9.539062 340.839844 12.5 340.839844 15.117188 C 340.675781 17.019531 341.894531 19.417969 343.96875 19.355469 C 346.835938 19.023438 348.46875 15.652344 348.273438 12.910156 C 348.269531 11.085938 347.015625 9 345.0625 9.097656 Z M 321.621094 12.125 C 320.476562 12.230469 319.425781 13.054688 319.175781 14.292969 C 318.507812 17.609375 320.925781 21.476562 324.285156 21.8125 C 325.683594 21.917969 326.78125 20.703125 326.984375 19.355469 C 327.417969 16.472656 325.601562 13.363281 322.964844 12.347656 C 322.53125 12.152344 322.066406 12.082031 321.621094 12.125 Z M 334.25 16.652344 C 332.011719 16.886719 329.855469 18.296875 328.585938 20.195312 C 327.230469 22.398438 326.191406 24.902344 325.953125 27.53125 C 325.53125 29.445312 327.132812 31.4375 329.050781 31.253906 C 331.359375 31.082031 333.171875 29.242188 335.449219 28.886719 C 337.363281 28.382812 339.210938 29.25 341.027344 29.753906 C 342.585938 30.261719 344.613281 29.796875 345.203125 28.0625 C 345.628906 26.3125 344.5625 24.601562 343.683594 23.175781 C 341.945312 20.894531 340.09375 18.5 337.5 17.230469 C 336.457031 16.703125 335.34375 16.539062 334.25 16.652344 Z M 334.25 16.652344 " fill-opacity="1" fill-rule="nonzero"/></svg>